<svg id="b7a42c43-2f89-46ea-9eb0-88d2cd42b1e5" data-name="OBJECTS" xmlns="http://www.w3.org/2000/svg" xmlns:xlink="http://www.w3.org/1999/xlink" width="681.62" height="222.28" viewBox="0 0 681.62 222.28"><defs><linearGradient id="a96c38a3-9ae5-49c8-b804-743d0f3b11a0" y1="240.65" x2="681.62" y2="240.65" gradientUnits="userSpaceOnUse"><stop offset="0" stop-color="#0071e2"/><stop offset="1" stop-color="#049fcc"/></linearGradient><linearGradient id="af97a9c3-8979-4f2f-9363-f6f9dec66f2d" x1="-79.91" y1="245.74" x2="-79.91" y2="245.74" xlink:href="#a96c38a3-9ae5-49c8-b804-743d0f3b11a0"/><linearGradient id="e593afcd-819c-44ea-96e1-a642af06ca54" x1="159.81" y1="131.69" x2="159.81" y2="131.69" xlink:href="#a96c38a3-9ae5-49c8-b804-743d0f3b11a0"/></defs><title>wave3</title><path d="M0,138.65a335.71,335.71,0,0,1,38.05,19.83C75.21,181,77,192,93.12,199.47,139,220.89,171.72,157,254.07,159c20.14.48,42,5.71,83.49,14.74,23.79,5.18,38.54,9.29,60.73,8.54,17.16-.58,29.64-3.76,49.33-9.31,54.83-15.45,62-21.34,84.33-25.77,29.63-5.89,103.26-31.72,132-7.6,41.66,35,6,184.18-68.5,209.12-34.31,11.5-50.88-12.09-115.69-28.92-97.76-25.39-143,6.74-268.7,9.93C162,331,89.57,328.12,0,306.48Z" transform="translate(0 -129.51)" style="fill:url(#a96c38a3-9ae5-49c8-b804-743d0f3b11a0)"/><path d="M919.49,159.72" transform="translate(0 -129.51)" style="fill:none"/><path d="M183.22,780.87" transform="translate(0 -129.51)" style="fill:#0071e2"/><path d="M130.09,124.3" transform="translate(0 -129.51)" style="fill:#0071e2"/><path d="M381.84,272.31" transform="translate(0 -129.51)" style="fill:#0071e2"/><path d="M254.07,130.62" transform="translate(0 -129.51)" style="fill:#0071e2"/><path d="M405.88,118" transform="translate(0 -129.51)" style="fill:#0071e2"/><path d="M346.42,66.1" transform="translate(0 -129.51)" style="fill:#0071e2"/><path d="M614.61,52.19" transform="translate(0 -129.51)" style="fill:#0071e2"/><path d="M540,62.31" transform="translate(0 -129.51)" style="fill:#0071e2"/><path d="M890.4,221.71" transform="translate(0 -129.51)" style="fill:#0071e2"/><path d="M366.66,112.91" transform="translate(0 -129.51)" style="fill:#0071e2"/><path d="M-101.41,248.27" transform="translate(0 -129.51)" style="fill:#0071e2"/><path d="M-79.91,245.74" transform="translate(0 -129.51)" style="fill:url(#af97a9c3-8979-4f2f-9363-f6f9dec66f2d)"/><path d="M159.81,131.69" transform="translate(0 -129.51)" style="fill:url(#e593afcd-819c-44ea-96e1-a642af06ca54)"/></svg>